<svg width="99" height="24" viewBox="0 0 99 24" fill="none" xmlns="http://www.w3.org/2000/svg">
<g clip-path="url(#clip0_2_1166)">
<path fill-rule="evenodd" clip-rule="evenodd" d="M8 5.33333H2V9.77777V14.2222H8V18.6667H14V14.2222V9.77777H8V5.33333Z" fill="#121417"/>
</g>
<path d="M33.1378 18.5V5.40909H35.9055V16.218H41.5178V18.5H33.1378ZM47.774 18.6918C46.764 18.6918 45.8947 18.4872 45.166 18.0781C44.4416 17.6648 43.8833 17.081 43.4913 16.3267C43.0993 15.5682 42.9032 14.6712 42.9032 13.6357C42.9032 12.6257 43.0993 11.7393 43.4913 10.9766C43.8833 10.2138 44.4352 9.61932 45.1468 9.19318C45.8627 8.76705 46.7022 8.55398 47.6653 8.55398C48.313 8.55398 48.916 8.65838 49.4743 8.86719C50.0368 9.07173 50.5268 9.38068 50.9444 9.79403C51.3663 10.2074 51.6944 10.7273 51.9288 11.3537C52.1632 11.9759 52.2804 12.7045 52.2804 13.5398V14.2876H43.9899V12.6001H49.7172C49.7172 12.2081 49.6319 11.8608 49.4615 11.5582C49.291 11.2557 49.0545 11.0192 48.752 10.8487C48.4537 10.674 48.1064 10.5866 47.7101 10.5866C47.2967 10.5866 46.9302 10.6825 46.6106 10.8743C46.2953 11.0618 46.0481 11.3153 45.8691 11.6349C45.6902 11.9503 45.5985 12.3018 45.5943 12.6896V14.294C45.5943 14.7798 45.6838 15.1996 45.8627 15.5533C46.046 15.907 46.3038 16.1797 46.6362 16.3714C46.9686 16.5632 47.3627 16.6591 47.8187 16.6591C48.1213 16.6591 48.3983 16.6165 48.6497 16.5312C48.9011 16.446 49.1163 16.3182 49.2953 16.1477C49.4743 15.9773 49.6106 15.7685 49.7044 15.5213L52.2228 15.6875C52.095 16.2926 51.8329 16.821 51.4366 17.2727C51.0446 17.7202 50.5375 18.0696 49.9153 18.321C49.2974 18.5682 48.5836 18.6918 47.774 18.6918ZM58.4806 22.3864C57.5985 22.3864 56.8422 22.2649 56.2115 22.022C55.585 21.7834 55.0865 21.4574 54.7157 21.044C54.345 20.6307 54.1042 20.1662 53.9934 19.6506L56.5119 19.3118C56.5886 19.5078 56.71 19.6911 56.8762 19.8615C57.0424 20.032 57.2619 20.1683 57.5346 20.2706C57.8116 20.3771 58.1483 20.4304 58.5446 20.4304C59.1369 20.4304 59.6248 20.2855 60.0083 19.9957C60.3961 19.7102 60.59 19.2308 60.59 18.5575V16.7614H60.475C60.3556 17.0341 60.1767 17.2919 59.938 17.5348C59.6994 17.7777 59.3926 17.9759 59.0176 18.1293C58.6426 18.2827 58.1951 18.3594 57.6752 18.3594C56.938 18.3594 56.2669 18.1889 55.6618 17.848C55.0609 17.5028 54.5815 16.9766 54.2235 16.2692C53.8699 15.5575 53.693 14.6584 53.693 13.5717C53.693 12.4595 53.8741 11.5305 54.2363 10.7848C54.5985 10.0391 55.0801 9.48082 55.6809 9.11009C56.286 8.73935 56.9487 8.55398 57.6689 8.55398C58.2186 8.55398 58.6788 8.64773 59.0495 8.83523C59.4203 9.01847 59.7186 9.24858 59.9444 9.52557C60.1745 9.7983 60.3514 10.0668 60.475 10.331H60.5772V8.68182H63.2811V18.5959C63.2811 19.4311 63.0765 20.13 62.6674 20.6925C62.2583 21.255 61.6916 21.6768 60.9672 21.9581C60.247 22.2436 59.4181 22.3864 58.4806 22.3864ZM58.5382 16.3139C58.9771 16.3139 59.3478 16.2053 59.6504 15.9879C59.9572 15.7663 60.1916 15.451 60.3535 15.0419C60.5197 14.6286 60.6028 14.1342 60.6028 13.5589C60.6028 12.9837 60.5218 12.4851 60.3599 12.0632C60.198 11.6371 59.9636 11.3068 59.6568 11.0724C59.35 10.8381 58.9771 10.7209 58.5382 10.7209C58.0907 10.7209 57.7136 10.8423 57.4068 11.0852C57.1 11.3239 56.8677 11.6562 56.71 12.0824C56.5524 12.5085 56.4735 13.0007 56.4735 13.5589C56.4735 14.1257 56.5524 14.6158 56.71 15.0291C56.872 15.4382 57.1042 15.7557 57.4068 15.9815C57.7136 16.2031 58.0907 16.3139 58.5382 16.3139ZM68.2477 18.6854C67.6213 18.6854 67.063 18.5767 66.573 18.3594C66.0829 18.1378 65.6951 17.8118 65.4096 17.3814C65.1284 16.9467 64.9877 16.4055 64.9877 15.7578C64.9877 15.2124 65.0879 14.7543 65.2882 14.3835C65.4885 14.0128 65.7612 13.7145 66.1064 13.4886C66.4515 13.2628 66.8436 13.0923 67.2825 12.9773C67.7257 12.8622 68.1902 12.7812 68.676 12.7344C69.247 12.6747 69.7072 12.6193 70.0566 12.5682C70.4061 12.5128 70.6596 12.4318 70.8173 12.3253C70.975 12.2187 71.0538 12.0611 71.0538 11.8523V11.8139C71.0538 11.4091 70.926 11.0959 70.6703 10.8743C70.4189 10.6527 70.0609 10.5419 69.5964 10.5419C69.1064 10.5419 68.7164 10.6506 68.4267 10.8679C68.1369 11.081 67.9451 11.3494 67.8514 11.6733L65.3329 11.4688C65.4608 10.8722 65.7122 10.3565 66.0872 9.92188C66.4622 9.48295 66.9458 9.14631 67.5382 8.91193C68.1348 8.6733 68.8251 8.55398 69.6092 8.55398C70.1547 8.55398 70.6767 8.6179 71.1752 8.74574C71.6781 8.87358 72.1234 9.07173 72.5112 9.3402C72.9032 9.60866 73.2122 9.95384 73.438 10.3757C73.6639 10.7933 73.7768 11.294 73.7768 11.8778V18.5H71.1944V17.1385H71.1177C70.96 17.4453 70.7491 17.7159 70.4849 17.9503C70.2207 18.1804 69.9032 18.3615 69.5325 18.4936C69.1618 18.6214 68.7335 18.6854 68.2477 18.6854ZM69.0275 16.8061C69.4281 16.8061 69.7818 16.7273 70.0886 16.5696C70.3954 16.4077 70.6362 16.1903 70.8109 15.9176C70.9856 15.6449 71.073 15.3359 71.073 14.9908V13.9489C70.9877 14.0043 70.8706 14.0554 70.7214 14.1023C70.5765 14.1449 70.4125 14.1854 70.2292 14.2237C70.046 14.2578 69.8627 14.2898 69.6795 14.3196C69.4963 14.3452 69.3301 14.3686 69.1809 14.3899C68.8613 14.4368 68.5822 14.5114 68.3436 14.6136C68.1049 14.7159 67.9196 14.8544 67.7875 15.0291C67.6554 15.1996 67.5893 15.4126 67.5893 15.6683C67.5893 16.0391 67.7235 16.3224 67.992 16.5185C68.2647 16.7102 68.6099 16.8061 69.0275 16.8061ZM78.6124 5.40909V18.5H75.8894V5.40909H78.6124ZM83.1012 18.5H80.1353L84.6545 5.40909H88.2212L92.734 18.5H89.7681L86.489 8.40057H86.3867L83.1012 18.5ZM82.9158 13.3544H89.9215V15.5149H82.9158V13.3544ZM97.0774 5.40909V18.5H94.3097V5.40909H97.0774Z" fill="#121417"/>
<defs>
<clipPath id="clip0_2_1166">
<rect width="16" height="16" fill="white" transform="translate(0 4)"/>
</clipPath>
</defs>
</svg>
