<svg width="18" height="20" viewBox="0 0 18 20" fill="none" xmlns="http://www.w3.org/2000/svg">
<path fill-rule="evenodd" clip-rule="evenodd" d="M17.0306 4.21938L13.2806 0.469375C13.1399 0.328758 12.949 0.249844 12.75 0.25H5.25C4.42157 0.25 3.75 0.921573 3.75 1.75V3.25H2.25C1.42157 3.25 0.75 3.92157 0.75 4.75V18.25C0.75 19.0784 1.42157 19.75 2.25 19.75H12.75C13.5784 19.75 14.25 19.0784 14.25 18.25V16.75H15.75C16.5784 16.75 17.25 16.0784 17.25 15.25V4.75C17.2502 4.55103 17.1712 4.36015 17.0306 4.21938ZM12.75 18.25H2.25V4.75H9.43969L12.75 8.06031V15.985C12.75 15.9906 12.75 15.9953 12.75 16C12.75 16.0047 12.75 16.0094 12.75 16.015V18.25ZM15.75 15.25H14.25V7.75C14.2502 7.55103 14.1712 7.36015 14.0306 7.21937L10.2806 3.46938C10.1399 3.32876 9.94897 3.24984 9.75 3.25H5.25V1.75H12.4397L15.75 5.06031V15.25ZM10.5 12.25C10.5 12.6642 10.1642 13 9.75 13H5.25C4.83579 13 4.5 12.6642 4.5 12.25C4.5 11.8358 4.83579 11.5 5.25 11.5H9.75C10.1642 11.5 10.5 11.8358 10.5 12.25ZM10.5 15.25C10.5 15.6642 10.1642 16 9.75 16H5.25C4.83579 16 4.5 15.6642 4.5 15.25C4.5 14.8358 4.83579 14.5 5.25 14.5H9.75C10.1642 14.5 10.5 14.8358 10.5 15.25Z" fill="#121417"/>
</svg>
