<svg width="20" height="20" viewBox="0 0 20 20" fill="none" xmlns="http://www.w3.org/2000/svg">
<path fill-rule="evenodd" clip-rule="evenodd" d="M10 0.25C4.61522 0.25 0.25 4.61522 0.25 10C0.25 15.3848 4.61522 19.75 10 19.75C15.3848 19.75 19.75 15.3848 19.75 10C19.7443 4.61758 15.3824 0.255684 10 0.25ZM10 18.25C5.44365 18.25 1.75 14.5563 1.75 10C1.75 5.44365 5.44365 1.75 10 1.75C14.5563 1.75 18.25 5.44365 18.25 10C18.2448 14.5542 14.5542 18.2448 10 18.25ZM16 10C16 10.4142 15.6642 10.75 15.25 10.75H10C9.58579 10.75 9.25 10.4142 9.25 10V4.75C9.25 4.33579 9.58579 4 10 4C10.4142 4 10.75 4.33579 10.75 4.75V9.25H15.25C15.6642 9.25 16 9.58579 16 10Z" fill="#121417"/>
</svg>
